Coordinates
version=1
nRows=8
nColumns=36
inDegrees=yes

Units are S.I. units (second, meters, Newtons, ...)
If the header above contains a line with 'inDegrees', this indicates whether rotational values are in degrees (yes) or radians (no).

endheader
time	pelvis_tilt	pelvis_list	pelvis_rotation	pelvis_tx	pelvis_ty	pelvis_tz	hip_flexion_r	hip_adduction_r	hip_rotation_r	knee_angle_r	knee_angle_r_beta	ankle_angle_r	subtalar_angle_r	mtp_angle_r	hip_flexion_l	hip_adduction_l	hip_rotation_l	knee_angle_l	knee_angle_l_beta	ankle_angle_l	subtalar_angle_l	mtp_angle_l	lumbar_extension	lumbar_bending	lumbar_rotation	arm_flex_r	arm_add_r	arm_rot_r	elbow_flex_r	pro_sup_r	arm_flex_l	arm_add_l	arm_rot_l	elbow_flex_l	pro_sup_l
     29.78333330	      4.45328040	     -3.37978103	     -1.40807547	      0.55997971	      0.81473109	      0.66235682	     24.48221269	      3.41709318	      5.97993256	     14.02435029	      0.24477109	      0.37394200	    -13.28306031	     -7.49999987	    -10.71828160	      0.60803511	      5.89060017	     11.88588960	      0.20744791	     18.45062883	     -6.62296515	     -7.49999987	    -17.35582046	      4.51703810	     -5.67520165	      6.10215052	    -10.94912595	     -0.51781669	     14.08341706	     93.73373168	     15.58038089	    -13.92050390	     11.77578589	     20.45373797	     92.02812927
     29.80000000	      3.63792949	     -3.25702838	     -1.27092199	      0.56105259	      0.81128210	      0.66222191	     25.32855623	      2.93236543	      6.90549124	      9.36286971	      0.16341290	      0.89700245	    -11.79090064	     -7.49999987	    -11.43066683	      0.69629219	      5.88781690	     12.08752028	      0.21096703	     18.59743871	     -6.08201827	     -7.49999987	    -16.38122709	      4.70115246	     -6.09515117	      5.98205020	    -11.08529211	     -0.32608825	     13.60031940	     93.42026987	     15.49376247	    -14.12713877	     11.25207597	     20.47206031	     91.58702095
     29.81666670	      2.62832991	     -2.95730952	     -1.31273896	      0.56227905	      0.80680173	      0.66224493	     26.63056958	      2.35481607	      7.92697024	      6.02072378	      0.10508145	      1.52762133	    -10.68203526	     -7.49999987	    -11.98928428	      0.87011774	      5.47884680	     12.41817558	      0.21673805	     18.50416981	     -5.40477465	     -7.49999987	    -15.09187325	      4.68540514	     -6.67147395	      5.76520567	    -11.18544818	     -0.15949749	     13.50903281	     93.82468865	     15.01204381	    -14.50191805	     10.51634906	     20.52818384	     91.94645574
     29.83333330	      1.93688714	     -2.58413994	     -1.33757464	      0.56288439	      0.80212285	      0.66230074	     27.93282563	      1.77935123	      8.56037171	      4.37414248	      0.07634319	      2.43983151	    -10.09038346	     -7.49999987	    -12.83401851	      1.01912496	      4.93386196	     12.87368568	      0.22468820	     17.99930087	     -5.33371999	     -7.49999987	    -14.36236650	      4.51778198	     -6.93235777	      5.43844890	    -11.30631029	     -0.16515907	     13.63645908	     93.79698788	     14.86342297	    -14.75857384	     10.42597282	     20.57260557	     91.91664158
     29.85000000	      0.60729009	     -2.33348271	     -1.39142378	      0.56305367	      0.79593760	      0.66262820	     30.34872319	      1.47864621	      7.20497522	      4.75785819	      0.08304029	      4.04596060	     -7.44144328	     -7.49999987	    -12.76017310	      0.87227333	      3.64716486	     13.71964303	      0.23945294	     17.26755392	     -5.20691716	     -7.49999987	    -12.74960655	      4.49692910	     -7.58326669	      5.13620467	    -11.49972980	      0.11306567	     13.48985926	     94.23305786	     14.11588361	    -14.93177874	      9.54086584	     20.44491623	     92.13060811
     29.86666670	      0.31636658	     -2.40916237	     -1.17598634	      0.56172983	      0.78877336	      0.66320828	     31.81767866	      1.60690781	      5.92543879	      6.54541420	      0.11423903	      4.33471434	     -7.50835042	     -7.49999987	    -13.46797968	      0.19840132	      1.81259937	     14.94165368	      0.26078105	     15.86523819	     -5.50198794	     -7.49999987	    -12.87080374	      4.72094602	     -7.88220469	      4.82560304	    -11.75074753	      0.11276937	     13.92622972	     94.00112107	     14.12585512	    -15.21930473	      9.38945695	     20.70878160	     91.90780024
     29.88333330	     -0.58937361	     -2.42393086	     -0.87108988	      0.56119440	      0.77899789	      0.66368688	     34.48392489	      1.61866554	      3.07436558	     10.33666830	      0.18040890	      5.74744502	     -5.51264271	     -7.49999987	    -13.09809730	     -0.48818302	     -0.27879246	     16.86037340	      0.29426903	     13.26533426	     -6.90333008	     -7.49999987	    -12.03347942	      4.85271890	     -8.43117738	      4.75252328	    -12.03776397	      0.53091650	     13.21233503	     93.04643372	     13.98473986	    -15.18273569	      8.20024193	     20.30579066	     90.93857004
     29.90000000	     -1.12944724	     -2.80380878	     -0.37763312	      0.56327184	      0.77091525	      0.66496907	     36.71156618	      1.82219255	      0.08843798	     15.04701521	      0.26261996	      6.29775332	     -4.91755638	     -7.49999987	    -12.85414397	     -1.74018448	     -2.86989676	     19.47480478	      0.33989946	      9.19213503	     -8.49483381	     -7.49999987	    -11.67153083	      5.38561023	     -9.04145558	      4.40203948	    -12.46280337	      0.62511921	     13.37341518	     91.92858579	     13.88822042	    -15.21817853	      7.47662395	     20.08945244	     90.01430998
